<svg width="1363" height="301" viewBox="0 0 1363 301" fill="none" xmlns="http://www.w3.org/2000/svg">
<g clip-path="url(#clip0_6_4)">
<path d="M1348 0H15C6.71573 0 0 6.71573 0 15V286C0 294.284 6.71573 301 15 301H1348C1356.28 301 1363 294.284 1363 286V15C1363 6.71573 1356.28 0 1348 0Z" fill="#F0F0F0"/>
<path d="M0 15C0 6.71573 6.71573 0 15 0H37V301H15C6.71573 301 0 294.284 0 286V15Z" fill="#C0CA33"/>
<path d="M1024.34 181H102.664C96.7746 181 92 186.97 92 194.333V247.667C92 255.03 96.7746 261 102.664 261H1024.34C1030.23 261 1035 255.03 1035 247.667V194.333C1035 186.97 1030.23 181 1024.34 181Z" fill="#CCCCCC"/>
<path d="M310.333 196.333H111.667C109.089 196.333 107 198.422 107 201V241C107 243.577 109.089 245.666 111.667 245.666H310.333C312.911 245.666 315 243.577 315 241V201C315 198.422 312.911 196.333 310.333 196.333Z" fill="#888888" stroke="#888888" stroke-width="4"/>
<path d="M171.823 213.167H177.792C178.958 213.167 179.972 213.34 180.833 213.687C181.694 214.035 182.358 214.549 182.823 215.229C183.295 215.91 183.531 216.75 183.531 217.75C183.531 218.618 183.396 219.344 183.125 219.927C182.854 220.51 182.476 220.993 181.99 221.375C181.51 221.75 180.951 222.059 180.312 222.302L179.115 222.979H174.104L174.083 220.156H177.792C178.257 220.156 178.642 220.073 178.948 219.906C179.253 219.74 179.483 219.503 179.635 219.198C179.795 218.885 179.875 218.514 179.875 218.083C179.875 217.646 179.795 217.271 179.635 216.958C179.476 216.646 179.24 216.406 178.927 216.24C178.622 216.073 178.243 215.99 177.792 215.99H175.479V228.333H171.823V213.167ZM180.125 228.333L176.771 221.625L180.646 221.604L184.042 228.177V228.333H180.125ZM191.031 228.542C190.115 228.542 189.295 228.399 188.573 228.115C187.851 227.823 187.24 227.424 186.74 226.917C186.247 226.41 185.868 225.826 185.604 225.167C185.347 224.507 185.219 223.809 185.219 223.073V222.677C185.219 221.851 185.333 221.087 185.562 220.385C185.792 219.677 186.132 219.059 186.583 218.531C187.035 218.003 187.601 217.594 188.281 217.302C188.962 217.003 189.753 216.854 190.656 216.854C191.455 216.854 192.17 216.983 192.802 217.24C193.434 217.497 193.969 217.865 194.406 218.344C194.851 218.823 195.187 219.403 195.417 220.083C195.653 220.764 195.771 221.528 195.771 222.375V223.802H186.562V221.604H192.344V221.333C192.351 220.958 192.285 220.639 192.146 220.375C192.014 220.111 191.819 219.91 191.562 219.771C191.306 219.632 190.993 219.562 190.625 219.562C190.243 219.562 189.927 219.646 189.677 219.812C189.434 219.979 189.243 220.208 189.104 220.5C188.972 220.785 188.878 221.115 188.823 221.49C188.767 221.865 188.74 222.26 188.74 222.677V223.073C188.74 223.49 188.795 223.868 188.906 224.208C189.024 224.549 189.191 224.84 189.406 225.083C189.628 225.319 189.892 225.503 190.198 225.635C190.51 225.767 190.865 225.833 191.26 225.833C191.74 225.833 192.212 225.743 192.677 225.562C193.142 225.382 193.542 225.083 193.875 224.667L195.469 226.562C195.24 226.889 194.913 227.205 194.49 227.51C194.073 227.816 193.573 228.066 192.99 228.26C192.406 228.448 191.753 228.542 191.031 228.542ZM203.052 225.5V220.854C203.052 220.535 203.007 220.26 202.917 220.031C202.826 219.802 202.684 219.625 202.49 219.5C202.295 219.368 202.035 219.302 201.708 219.302C201.444 219.302 201.219 219.347 201.031 219.437C200.844 219.528 200.701 219.663 200.604 219.844C200.507 220.024 200.458 220.253 200.458 220.531H196.948C196.948 220.01 197.062 219.528 197.292 219.083C197.528 218.632 197.861 218.24 198.292 217.906C198.729 217.573 199.25 217.316 199.854 217.135C200.465 216.948 201.146 216.854 201.896 216.854C202.792 216.854 203.59 217.003 204.292 217.302C205 217.601 205.559 218.049 205.969 218.646C206.378 219.236 206.583 219.979 206.583 220.875V225.49C206.583 226.226 206.625 226.785 206.708 227.167C206.792 227.542 206.91 227.872 207.062 228.156V228.333H203.542C203.375 227.986 203.25 227.562 203.167 227.062C203.09 226.556 203.052 226.035 203.052 225.5ZM203.479 221.448L203.5 223.323H201.948C201.622 223.323 201.344 223.368 201.115 223.458C200.892 223.549 200.712 223.674 200.573 223.833C200.441 223.986 200.344 224.16 200.281 224.354C200.226 224.549 200.198 224.753 200.198 224.969C200.198 225.177 200.247 225.365 200.344 225.531C200.448 225.691 200.587 225.816 200.76 225.906C200.934 225.997 201.128 226.042 201.344 226.042C201.733 226.042 202.062 225.969 202.333 225.823C202.611 225.67 202.823 225.486 202.969 225.271C203.115 225.056 203.187 224.854 203.187 224.667L203.958 226.104C203.819 226.382 203.66 226.663 203.479 226.948C203.306 227.233 203.087 227.497 202.823 227.74C202.566 227.976 202.25 228.17 201.875 228.323C201.5 228.469 201.045 228.542 200.51 228.542C199.816 228.542 199.177 228.399 198.594 228.115C198.017 227.83 197.556 227.434 197.208 226.927C196.861 226.413 196.687 225.823 196.687 225.156C196.687 224.573 196.792 224.052 197 223.594C197.215 223.135 197.538 222.747 197.969 222.427C198.399 222.108 198.948 221.865 199.615 221.698C200.281 221.531 201.066 221.448 201.969 221.448H203.479ZM213.292 225.833C213.618 225.833 213.896 225.774 214.125 225.656C214.361 225.531 214.538 225.358 214.656 225.135C214.781 224.906 214.84 224.632 214.833 224.312H218.135C218.142 225.16 217.934 225.903 217.51 226.542C217.094 227.174 216.524 227.667 215.802 228.021C215.087 228.368 214.278 228.542 213.375 228.542C212.493 228.542 211.722 228.399 211.062 228.115C210.403 227.823 209.851 227.42 209.406 226.906C208.969 226.385 208.639 225.778 208.417 225.083C208.201 224.389 208.094 223.635 208.094 222.823V222.583C208.094 221.771 208.201 221.017 208.417 220.323C208.639 219.622 208.969 219.014 209.406 218.5C209.851 217.979 210.399 217.576 211.052 217.292C211.712 217 212.479 216.854 213.354 216.854C214.292 216.854 215.118 217.031 215.833 217.385C216.556 217.74 217.122 218.253 217.531 218.927C217.941 219.601 218.142 220.417 218.135 221.375H214.833C214.84 221.035 214.788 220.729 214.677 220.458C214.566 220.187 214.392 219.972 214.156 219.812C213.927 219.646 213.632 219.562 213.271 219.562C212.91 219.562 212.618 219.642 212.396 219.802C212.174 219.962 212.003 220.184 211.885 220.469C211.774 220.747 211.698 221.066 211.656 221.427C211.622 221.788 211.604 222.174 211.604 222.583V222.823C211.604 223.24 211.622 223.632 211.656 224C211.698 224.361 211.778 224.681 211.896 224.958C212.014 225.229 212.184 225.444 212.406 225.604C212.628 225.757 212.924 225.833 213.292 225.833ZM225.573 217.062V219.5H218.781V217.062H225.573ZM220.208 214.26H223.719V224.656C223.719 224.955 223.753 225.187 223.823 225.354C223.892 225.514 224.01 225.628 224.177 225.698C224.351 225.76 224.58 225.792 224.865 225.792C225.066 225.792 225.233 225.788 225.365 225.781C225.497 225.767 225.622 225.75 225.74 225.729V228.24C225.441 228.337 225.128 228.41 224.802 228.458C224.476 228.514 224.128 228.542 223.76 228.542C223.01 228.542 222.368 228.424 221.833 228.187C221.306 227.951 220.903 227.58 220.625 227.073C220.347 226.566 220.208 225.906 220.208 225.094V214.26ZM233.167 223.573V213.167H236.812V223.573C236.812 224.587 236.58 225.465 236.115 226.208C235.656 226.951 235.031 227.528 234.24 227.937C233.455 228.34 232.573 228.542 231.594 228.542C230.58 228.542 229.677 228.372 228.885 228.031C228.101 227.691 227.483 227.167 227.031 226.458C226.587 225.75 226.365 224.847 226.365 223.75H230.031C230.031 224.264 230.09 224.667 230.208 224.958C230.326 225.243 230.5 225.444 230.729 225.562C230.965 225.674 231.253 225.729 231.594 225.729C231.927 225.729 232.208 225.646 232.437 225.479C232.674 225.306 232.854 225.059 232.979 224.74C233.104 224.413 233.167 224.024 233.167 223.573ZM246.948 224.302C246.948 224.066 246.913 223.854 246.844 223.667C246.774 223.472 246.646 223.292 246.458 223.125C246.271 222.958 246 222.792 245.646 222.625C245.299 222.451 244.84 222.271 244.271 222.083C243.604 221.861 242.962 221.611 242.344 221.333C241.726 221.049 241.174 220.719 240.687 220.344C240.201 219.962 239.816 219.517 239.531 219.01C239.247 218.497 239.104 217.899 239.104 217.219C239.104 216.566 239.25 215.979 239.542 215.458C239.833 214.931 240.24 214.483 240.76 214.115C241.288 213.74 241.906 213.455 242.615 213.26C243.323 213.059 244.097 212.958 244.937 212.958C246.049 212.958 247.028 213.153 247.875 213.542C248.729 213.924 249.396 214.469 249.875 215.177C250.361 215.878 250.604 216.708 250.604 217.667H246.969C246.969 217.285 246.889 216.948 246.729 216.656C246.576 216.365 246.344 216.135 246.031 215.969C245.719 215.802 245.326 215.719 244.854 215.719C244.396 215.719 244.01 215.788 243.698 215.927C243.385 216.066 243.149 216.253 242.99 216.49C242.83 216.719 242.75 216.972 242.75 217.25C242.75 217.479 242.812 217.687 242.937 217.875C243.069 218.056 243.253 218.226 243.49 218.385C243.733 218.545 244.024 218.698 244.365 218.844C244.712 218.99 245.101 219.132 245.531 219.271C246.337 219.528 247.052 219.816 247.677 220.135C248.309 220.448 248.84 220.806 249.271 221.208C249.708 221.604 250.038 222.056 250.26 222.562C250.49 223.069 250.604 223.642 250.604 224.281C250.604 224.962 250.472 225.566 250.208 226.094C249.944 226.622 249.566 227.069 249.073 227.437C248.58 227.799 247.99 228.073 247.302 228.26C246.615 228.448 245.847 228.542 245 228.542C244.222 228.542 243.455 228.444 242.698 228.25C241.948 228.049 241.267 227.743 240.656 227.333C240.045 226.917 239.556 226.385 239.187 225.74C238.826 225.087 238.646 224.312 238.646 223.417H242.312C242.312 223.861 242.372 224.236 242.49 224.542C242.608 224.847 242.781 225.094 243.01 225.281C243.24 225.462 243.521 225.594 243.854 225.677C244.187 225.753 244.569 225.792 245 225.792C245.465 225.792 245.84 225.726 246.125 225.594C246.41 225.455 246.618 225.274 246.75 225.052C246.882 224.823 246.948 224.573 246.948 224.302Z" fill="white"/>
<path d="M542.333 196.333H343.667C341.089 196.333 339 198.422 339 201V241C339 243.577 341.089 245.666 343.667 245.666H542.333C544.911 245.666 547 243.577 547 241V201C547 198.422 544.911 196.333 542.333 196.333Z" fill="#888888" stroke="#888888" stroke-width="4"/>
<path d="M418.844 213.167V228.333H415.198L409.833 218.896V228.333H406.177V213.167H409.833L415.198 222.604V213.167H418.844ZM420.552 222.812V222.594C420.552 221.767 420.67 221.007 420.906 220.312C421.142 219.611 421.49 219.003 421.948 218.49C422.406 217.976 422.972 217.576 423.646 217.292C424.319 217 425.097 216.854 425.979 216.854C426.868 216.854 427.649 217 428.323 217.292C429.003 217.576 429.573 217.976 430.031 218.49C430.49 219.003 430.837 219.611 431.073 220.312C431.309 221.007 431.427 221.767 431.427 222.594V222.812C431.427 223.632 431.309 224.392 431.073 225.094C430.837 225.788 430.49 226.396 430.031 226.917C429.573 227.431 429.007 227.83 428.333 228.115C427.66 228.399 426.882 228.542 426 228.542C425.118 228.542 424.337 228.399 423.656 228.115C422.976 227.83 422.406 227.431 421.948 226.917C421.49 226.396 421.142 225.788 420.906 225.094C420.67 224.392 420.552 223.632 420.552 222.812ZM424.062 222.594V222.812C424.062 223.236 424.094 223.632 424.156 224C424.219 224.368 424.323 224.691 424.469 224.969C424.615 225.24 424.812 225.451 425.062 225.604C425.312 225.757 425.625 225.833 426 225.833C426.368 225.833 426.674 225.757 426.917 225.604C427.167 225.451 427.365 225.24 427.51 224.969C427.656 224.691 427.76 224.368 427.823 224C427.885 223.632 427.917 223.236 427.917 222.812V222.594C427.917 222.184 427.885 221.799 427.823 221.437C427.76 221.069 427.656 220.747 427.51 220.469C427.365 220.184 427.167 219.962 426.917 219.802C426.667 219.642 426.354 219.562 425.979 219.562C425.611 219.562 425.302 219.642 425.052 219.802C424.809 219.962 424.615 220.184 424.469 220.469C424.323 220.747 424.219 221.069 424.156 221.437C424.094 221.799 424.062 222.184 424.062 222.594ZM439.469 225.75V212.333H443V228.333H439.833L439.469 225.75ZM432.552 222.833V222.615C432.552 221.76 432.646 220.983 432.833 220.281C433.021 219.573 433.299 218.965 433.667 218.458C434.035 217.944 434.493 217.549 435.042 217.271C435.59 216.993 436.222 216.854 436.938 216.854C437.576 216.854 438.135 217.003 438.615 217.302C439.094 217.594 439.503 218.003 439.844 218.531C440.184 219.059 440.462 219.677 440.677 220.385C440.892 221.087 441.056 221.844 441.167 222.656V222.917C441.056 223.681 440.892 224.403 440.677 225.083C440.462 225.757 440.184 226.354 439.844 226.875C439.503 227.396 439.09 227.806 438.604 228.104C438.125 228.396 437.563 228.542 436.917 228.542C436.201 228.542 435.569 228.399 435.021 228.115C434.479 227.83 434.024 227.431 433.656 226.917C433.295 226.403 433.021 225.799 432.833 225.104C432.646 224.41 432.552 223.653 432.552 222.833ZM436.063 222.615V222.833C436.063 223.257 436.09 223.649 436.146 224.01C436.201 224.372 436.295 224.691 436.427 224.969C436.566 225.24 436.747 225.451 436.969 225.604C437.198 225.757 437.479 225.833 437.813 225.833C438.264 225.833 438.635 225.726 438.927 225.51C439.226 225.295 439.444 224.99 439.583 224.594C439.729 224.198 439.792 223.733 439.771 223.198V222.375C439.785 221.917 439.753 221.514 439.677 221.167C439.601 220.812 439.479 220.517 439.313 220.281C439.153 220.045 438.948 219.868 438.698 219.75C438.455 219.625 438.167 219.562 437.833 219.562C437.507 219.562 437.229 219.639 437 219.792C436.778 219.944 436.597 220.16 436.458 220.437C436.319 220.708 436.219 221.031 436.156 221.406C436.094 221.774 436.063 222.177 436.063 222.615ZM450.448 228.542C449.531 228.542 448.712 228.399 447.99 228.115C447.267 227.823 446.656 227.424 446.156 226.917C445.663 226.41 445.285 225.826 445.021 225.167C444.764 224.507 444.635 223.809 444.635 223.073V222.677C444.635 221.851 444.75 221.087 444.979 220.385C445.208 219.677 445.549 219.059 446 218.531C446.451 218.003 447.017 217.594 447.698 217.302C448.378 217.003 449.17 216.854 450.073 216.854C450.872 216.854 451.587 216.983 452.219 217.24C452.851 217.497 453.385 217.865 453.823 218.344C454.267 218.823 454.604 219.403 454.833 220.083C455.069 220.764 455.188 221.528 455.188 222.375V223.802H445.979V221.604H451.76V221.333C451.767 220.958 451.701 220.639 451.563 220.375C451.431 220.111 451.236 219.91 450.979 219.771C450.722 219.632 450.41 219.562 450.042 219.562C449.66 219.562 449.344 219.646 449.094 219.812C448.851 219.979 448.66 220.208 448.521 220.5C448.389 220.785 448.295 221.115 448.24 221.49C448.184 221.865 448.156 222.26 448.156 222.677V223.073C448.156 223.49 448.212 223.868 448.323 224.208C448.441 224.549 448.608 224.84 448.823 225.083C449.045 225.319 449.309 225.503 449.615 225.635C449.927 225.767 450.281 225.833 450.677 225.833C451.156 225.833 451.628 225.743 452.094 225.562C452.559 225.382 452.958 225.083 453.292 224.667L454.885 226.562C454.656 226.889 454.33 227.205 453.906 227.51C453.49 227.816 452.99 228.066 452.406 228.26C451.823 228.448 451.17 228.542 450.448 228.542ZM462.813 223.573V213.167H466.458V223.573C466.458 224.587 466.226 225.465 465.76 226.208C465.302 226.951 464.677 227.528 463.885 227.937C463.101 228.34 462.219 228.542 461.24 228.542C460.226 228.542 459.323 228.372 458.531 228.031C457.747 227.691 457.128 227.167 456.677 226.458C456.233 225.75 456.01 224.847 456.01 223.75H459.677C459.677 224.264 459.736 224.667 459.854 224.958C459.972 225.243 460.146 225.444 460.375 225.562C460.611 225.674 460.899 225.729 461.24 225.729C461.573 225.729 461.854 225.646 462.083 225.479C462.319 225.306 462.5 225.059 462.625 224.74C462.75 224.413 462.813 224.024 462.813 223.573ZM476.594 224.302C476.594 224.066 476.559 223.854 476.49 223.667C476.42 223.472 476.292 223.292 476.104 223.125C475.917 222.958 475.646 222.792 475.292 222.625C474.944 222.451 474.486 222.271 473.917 222.083C473.25 221.861 472.608 221.611 471.99 221.333C471.372 221.049 470.819 220.719 470.333 220.344C469.847 219.962 469.462 219.517 469.177 219.01C468.892 218.497 468.75 217.899 468.75 217.219C468.75 216.566 468.896 215.979 469.188 215.458C469.479 214.931 469.885 214.483 470.406 214.115C470.934 213.74 471.552 213.455 472.26 213.26C472.969 213.059 473.743 212.958 474.583 212.958C475.694 212.958 476.674 213.153 477.521 213.542C478.375 213.924 479.042 214.469 479.521 215.177C480.007 215.878 480.25 216.708 480.25 217.667H476.615C476.615 217.285 476.535 216.948 476.375 216.656C476.222 216.365 475.99 216.135 475.677 215.969C475.365 215.802 474.972 215.719 474.5 215.719C474.042 215.719 473.656 215.788 473.344 215.927C473.031 216.066 472.795 216.253 472.635 216.49C472.476 216.719 472.396 216.972 472.396 217.25C472.396 217.479 472.458 217.687 472.583 217.875C472.715 218.056 472.899 218.226 473.135 218.385C473.378 218.545 473.67 218.698 474.01 218.844C474.358 218.99 474.747 219.132 475.177 219.271C475.983 219.528 476.698 219.816 477.323 220.135C477.955 220.448 478.486 220.806 478.917 221.208C479.354 221.604 479.684 222.056 479.906 222.562C480.135 223.069 480.25 223.642 480.25 224.281C480.25 224.962 480.118 225.566 479.854 226.094C479.59 226.622 479.212 227.069 478.719 227.437C478.226 227.799 477.635 228.073 476.948 228.26C476.26 228.448 475.493 228.542 474.646 228.542C473.868 228.542 473.101 228.444 472.344 228.25C471.594 228.049 470.913 227.743 470.302 227.333C469.691 226.917 469.201 226.385 468.833 225.74C468.472 225.087 468.292 224.312 468.292 223.417H471.958C471.958 223.861 472.017 224.236 472.135 224.542C472.253 224.847 472.427 225.094 472.656 225.281C472.885 225.462 473.167 225.594 473.5 225.677C473.833 225.753 474.215 225.792 474.646 225.792C475.111 225.792 475.486 225.726 475.771 225.594C476.056 225.455 476.264 225.274 476.396 225.052C476.528 224.823 476.594 224.573 476.594 224.302Z" fill="white"/>
<path d="M774.333 196.333H575.667C573.089 196.333 571 198.422 571 201V241C571 243.577 573.089 245.666 575.667 245.666H774.333C776.911 245.666 779 243.577 779 241V201C779 198.422 776.911 196.333 774.333 196.333Z" fill="#888888" stroke="#888888" stroke-width="4"/>
<path d="M635.75 225.521V228.333H627.667V225.521H635.75ZM628.969 213.167V228.333H625.313V213.167H628.969ZM634.708 219.187V221.906H627.667V219.187H634.708ZM635.781 213.167V215.99H627.667V213.167H635.781ZM640.063 217.062L641.646 220.167L643.281 217.062H646.927L643.969 222.552L647.083 228.333H643.406L641.646 225L639.896 228.333H636.219L639.333 222.552L636.385 217.062H640.063ZM651.625 219.229V232.667H648.115V217.062H651.385L651.625 219.229ZM658.542 222.562V222.781C658.542 223.601 658.448 224.361 658.26 225.062C658.073 225.764 657.795 226.375 657.427 226.896C657.059 227.417 656.601 227.823 656.052 228.115C655.51 228.399 654.882 228.542 654.167 228.542C653.493 228.542 652.913 228.392 652.427 228.094C651.941 227.795 651.535 227.382 651.208 226.854C650.882 226.326 650.618 225.722 650.417 225.042C650.215 224.361 650.056 223.642 649.938 222.885V222.604C650.056 221.792 650.215 221.038 650.417 220.344C650.618 219.642 650.882 219.031 651.208 218.51C651.535 217.99 651.938 217.583 652.417 217.292C652.903 217 653.483 216.854 654.156 216.854C654.872 216.854 655.5 216.99 656.042 217.26C656.59 217.531 657.049 217.92 657.417 218.427C657.792 218.927 658.073 219.528 658.26 220.229C658.448 220.931 658.542 221.708 658.542 222.562ZM655.031 222.781V222.562C655.031 222.125 655 221.726 654.938 221.365C654.875 220.997 654.774 220.677 654.635 220.406C654.503 220.135 654.326 219.927 654.104 219.781C653.882 219.635 653.608 219.562 653.281 219.562C652.906 219.562 652.59 219.622 652.333 219.74C652.083 219.851 651.882 220.024 651.729 220.26C651.583 220.49 651.479 220.778 651.417 221.125C651.361 221.465 651.337 221.865 651.344 222.323V223.177C651.33 223.705 651.382 224.17 651.5 224.573C651.618 224.969 651.823 225.278 652.115 225.5C652.406 225.722 652.802 225.833 653.302 225.833C653.635 225.833 653.913 225.757 654.135 225.604C654.358 225.444 654.535 225.226 654.667 224.948C654.799 224.663 654.892 224.337 654.948 223.969C655.003 223.601 655.031 223.205 655.031 222.781ZM663.646 219.854V228.333H660.135V217.062H663.417L663.646 219.854ZM666.979 216.979L666.917 220.24C666.778 220.226 666.59 220.208 666.354 220.187C666.118 220.167 665.92 220.156 665.76 220.156C665.351 220.156 664.997 220.205 664.698 220.302C664.406 220.392 664.163 220.531 663.969 220.719C663.781 220.899 663.642 221.128 663.552 221.406C663.469 221.684 663.431 222.007 663.438 222.375L662.802 221.958C662.802 221.201 662.875 220.514 663.021 219.896C663.174 219.271 663.389 218.733 663.667 218.281C663.944 217.823 664.281 217.472 664.677 217.229C665.073 216.979 665.517 216.854 666.01 216.854C666.184 216.854 666.354 216.865 666.521 216.885C666.694 216.906 666.847 216.937 666.979 216.979ZM673.438 228.542C672.521 228.542 671.701 228.399 670.979 228.115C670.257 227.823 669.646 227.424 669.146 226.917C668.653 226.41 668.274 225.826 668.01 225.167C667.753 224.507 667.625 223.809 667.625 223.073V222.677C667.625 221.851 667.74 221.087 667.969 220.385C668.198 219.677 668.538 219.059 668.99 218.531C669.441 218.003 670.007 217.594 670.688 217.302C671.368 217.003 672.16 216.854 673.063 216.854C673.861 216.854 674.576 216.983 675.208 217.24C675.84 217.497 676.375 217.865 676.813 218.344C677.257 218.823 677.594 219.403 677.823 220.083C678.059 220.764 678.177 221.528 678.177 222.375V223.802H668.969V221.604H674.75V221.333C674.757 220.958 674.691 220.639 674.552 220.375C674.42 220.111 674.226 219.91 673.969 219.771C673.712 219.632 673.399 219.562 673.031 219.562C672.649 219.562 672.333 219.646 672.083 219.812C671.84 219.979 671.649 220.208 671.51 220.5C671.378 220.785 671.285 221.115 671.229 221.49C671.174 221.865 671.146 222.26 671.146 222.677V223.073C671.146 223.49 671.201 223.868 671.313 224.208C671.431 224.549 671.597 224.84 671.813 225.083C672.035 225.319 672.299 225.503 672.604 225.635C672.917 225.767 673.271 225.833 673.667 225.833C674.146 225.833 674.618 225.743 675.083 225.562C675.549 225.382 675.948 225.083 676.281 224.667L677.875 226.562C677.646 226.889 677.319 227.205 676.896 227.51C676.479 227.816 675.979 228.066 675.396 228.26C674.813 228.448 674.16 228.542 673.438 228.542ZM685.51 225.167C685.51 224.972 685.444 224.806 685.313 224.667C685.188 224.521 684.965 224.389 684.646 224.271C684.326 224.146 683.878 224.021 683.302 223.896C682.753 223.778 682.236 223.622 681.75 223.427C681.271 223.233 680.851 222.997 680.49 222.719C680.128 222.441 679.844 222.111 679.635 221.729C679.434 221.347 679.333 220.91 679.333 220.417C679.333 219.937 679.434 219.486 679.635 219.062C679.844 218.632 680.146 218.253 680.542 217.927C680.944 217.594 681.434 217.333 682.01 217.146C682.587 216.951 683.243 216.854 683.979 216.854C684.993 216.854 685.868 217.01 686.604 217.323C687.34 217.628 687.906 218.059 688.302 218.615C688.705 219.163 688.906 219.799 688.906 220.521H685.396C685.396 220.236 685.347 219.993 685.25 219.792C685.16 219.59 685.01 219.437 684.802 219.333C684.594 219.222 684.316 219.167 683.969 219.167C683.726 219.167 683.503 219.212 683.302 219.302C683.108 219.392 682.951 219.517 682.833 219.677C682.715 219.837 682.656 220.024 682.656 220.24C682.656 220.392 682.691 220.531 682.76 220.656C682.837 220.774 682.951 220.885 683.104 220.99C683.257 221.087 683.451 221.177 683.688 221.26C683.924 221.337 684.208 221.406 684.542 221.469C685.299 221.608 686.007 221.806 686.667 222.062C687.326 222.319 687.861 222.684 688.271 223.156C688.688 223.628 688.896 224.264 688.896 225.062C688.896 225.562 688.781 226.024 688.552 226.448C688.323 226.865 687.993 227.233 687.563 227.552C687.132 227.865 686.615 228.108 686.01 228.281C685.406 228.455 684.726 228.542 683.969 228.542C682.892 228.542 681.983 228.351 681.24 227.969C680.497 227.58 679.934 227.094 679.552 226.51C679.177 225.92 678.99 225.323 678.99 224.719H682.26C682.274 225.066 682.358 225.351 682.51 225.573C682.67 225.795 682.882 225.958 683.146 226.062C683.41 226.167 683.715 226.219 684.063 226.219C684.382 226.219 684.646 226.174 684.854 226.083C685.069 225.993 685.233 225.872 685.344 225.719C685.455 225.559 685.51 225.375 685.51 225.167ZM696.448 225.167C696.448 224.972 696.382 224.806 696.25 224.667C696.125 224.521 695.903 224.389 695.583 224.271C695.264 224.146 694.816 224.021 694.24 223.896C693.691 223.778 693.174 223.622 692.688 223.427C692.208 223.233 691.788 222.997 691.427 222.719C691.066 222.441 690.781 222.111 690.573 221.729C690.372 221.347 690.271 220.91 690.271 220.417C690.271 219.937 690.372 219.486 690.573 219.062C690.781 218.632 691.083 218.253 691.479 217.927C691.882 217.594 692.372 217.333 692.948 217.146C693.524 216.951 694.181 216.854 694.917 216.854C695.931 216.854 696.806 217.01 697.542 217.323C698.278 217.628 698.844 218.059 699.24 218.615C699.642 219.163 699.844 219.799 699.844 220.521H696.333C696.333 220.236 696.285 219.993 696.188 219.792C696.097 219.59 695.948 219.437 695.74 219.333C695.531 219.222 695.253 219.167 694.906 219.167C694.663 219.167 694.441 219.212 694.24 219.302C694.045 219.392 693.889 219.517 693.771 219.677C693.653 219.837 693.594 220.024 693.594 220.24C693.594 220.392 693.628 220.531 693.698 220.656C693.774 220.774 693.889 220.885 694.042 220.99C694.194 221.087 694.389 221.177 694.625 221.26C694.861 221.337 695.146 221.406 695.479 221.469C696.236 221.608 696.944 221.806 697.604 222.062C698.264 222.319 698.799 222.684 699.208 223.156C699.625 223.628 699.833 224.264 699.833 225.062C699.833 225.562 699.719 226.024 699.49 226.448C699.26 226.865 698.931 227.233 698.5 227.552C698.069 227.865 697.552 228.108 696.948 228.281C696.344 228.455 695.663 228.542 694.906 228.542C693.83 228.542 692.92 228.351 692.177 227.969C691.434 227.58 690.872 227.094 690.49 226.51C690.115 225.92 689.927 225.323 689.927 224.719H693.198C693.212 225.066 693.295 225.351 693.448 225.573C693.608 225.795 693.819 225.958 694.083 226.062C694.347 226.167 694.653 226.219 695 226.219C695.319 226.219 695.583 226.174 695.792 226.083C696.007 225.993 696.17 225.872 696.281 225.719C696.392 225.559 696.448 225.375 696.448 225.167ZM707.677 223.573V213.167H711.323V223.573C711.323 224.587 711.09 225.465 710.625 226.208C710.167 226.951 709.542 227.528 708.75 227.937C707.965 228.34 707.083 228.542 706.104 228.542C705.09 228.542 704.188 228.372 703.396 228.031C702.611 227.691 701.993 227.167 701.542 226.458C701.097 225.75 700.875 224.847 700.875 223.75H704.542C704.542 224.264 704.601 224.667 704.719 224.958C704.837 225.243 705.01 225.444 705.24 225.562C705.476 225.674 705.764 225.729 706.104 225.729C706.438 225.729 706.719 225.646 706.948 225.479C707.184 225.306 707.365 225.059 707.49 224.74C707.615 224.413 707.677 224.024 707.677 223.573ZM721.458 224.302C721.458 224.066 721.424 223.854 721.354 223.667C721.285 223.472 721.156 223.292 720.969 223.125C720.781 222.958 720.51 222.792 720.156 222.625C719.809 222.451 719.351 222.271 718.781 222.083C718.115 221.861 717.472 221.611 716.854 221.333C716.236 221.049 715.684 220.719 715.198 220.344C714.712 219.962 714.326 219.517 714.042 219.01C713.757 218.497 713.615 217.899 713.615 217.219C713.615 216.566 713.76 215.979 714.052 215.458C714.344 214.931 714.75 214.483 715.271 214.115C715.799 213.74 716.417 213.455 717.125 213.26C717.833 213.059 718.608 212.958 719.448 212.958C720.559 212.958 721.538 213.153 722.385 213.542C723.24 213.924 723.906 214.469 724.385 215.177C724.872 215.878 725.115 216.708 725.115 217.667H721.479C721.479 217.285 721.399 216.948 721.24 216.656C721.087 216.365 720.854 216.135 720.542 215.969C720.229 215.802 719.837 215.719 719.365 215.719C718.906 215.719 718.521 215.788 718.208 215.927C717.896 216.066 717.66 216.253 717.5 216.49C717.34 216.719 717.26 216.972 717.26 217.25C717.26 217.479 717.323 217.687 717.448 217.875C717.58 218.056 717.764 218.226 718 218.385C718.243 218.545 718.535 218.698 718.875 218.844C719.222 218.99 719.611 219.132 720.042 219.271C720.847 219.528 721.563 219.816 722.188 220.135C722.819 220.448 723.351 220.806 723.781 221.208C724.219 221.604 724.549 222.056 724.771 222.562C725 223.069 725.115 223.642 725.115 224.281C725.115 224.962 724.983 225.566 724.719 226.094C724.455 226.622 724.076 227.069 723.583 227.437C723.09 227.799 722.5 228.073 721.813 228.26C721.125 228.448 720.358 228.542 719.51 228.542C718.733 228.542 717.965 228.444 717.208 228.25C716.458 228.049 715.778 227.743 715.167 227.333C714.556 226.917 714.066 226.385 713.698 225.74C713.337 225.087 713.156 224.312 713.156 223.417H716.823C716.823 223.861 716.882 224.236 717 224.542C717.118 224.847 717.292 225.094 717.521 225.281C717.75 225.462 718.031 225.594 718.365 225.677C718.698 225.753 719.08 225.792 719.51 225.792C719.976 225.792 720.351 225.726 720.635 225.594C720.92 225.455 721.128 225.274 721.26 225.052C721.392 224.823 721.458 224.573 721.458 224.302Z" fill="white"/>
<path d="M1006.33 196.333H807.667C805.089 196.333 803 198.422 803 201V241C803 243.577 805.089 245.666 807.667 245.666H1006.33C1008.91 245.666 1011 243.577 1011 241V201C1011 198.422 1008.91 196.333 1006.33 196.333Z" fill="#888888" stroke="#888888" stroke-width="4"/>
<path d="M862.656 213.167H865.635L869.021 223.719L872.406 213.167H875.385L870.229 228.333H867.813L862.656 213.167ZM860.844 213.167H863.927L864.5 224.792V228.333H860.844V213.167ZM874.115 213.167H877.208V228.333H873.542V224.792L874.115 213.167ZM878.948 222.812V222.594C878.948 221.767 879.066 221.007 879.302 220.312C879.538 219.611 879.885 219.003 880.344 218.49C880.802 217.976 881.368 217.576 882.042 217.292C882.715 217 883.493 216.854 884.375 216.854C885.264 216.854 886.045 217 886.719 217.292C887.399 217.576 887.969 217.976 888.427 218.49C888.885 219.003 889.233 219.611 889.469 220.312C889.705 221.007 889.823 221.767 889.823 222.594V222.812C889.823 223.632 889.705 224.392 889.469 225.094C889.233 225.788 888.885 226.396 888.427 226.917C887.969 227.431 887.403 227.83 886.729 228.115C886.056 228.399 885.278 228.542 884.396 228.542C883.514 228.542 882.733 228.399 882.052 228.115C881.372 227.83 880.802 227.431 880.344 226.917C879.885 226.396 879.538 225.788 879.302 225.094C879.066 224.392 878.948 223.632 878.948 222.812ZM882.458 222.594V222.812C882.458 223.236 882.49 223.632 882.552 224C882.615 224.368 882.719 224.691 882.865 224.969C883.01 225.24 883.208 225.451 883.458 225.604C883.708 225.757 884.021 225.833 884.396 225.833C884.764 225.833 885.069 225.757 885.313 225.604C885.563 225.451 885.76 225.24 885.906 224.969C886.052 224.691 886.156 224.368 886.219 224C886.281 223.632 886.313 223.236 886.313 222.812V222.594C886.313 222.184 886.281 221.799 886.219 221.437C886.156 221.069 886.052 220.747 885.906 220.469C885.76 220.184 885.563 219.962 885.313 219.802C885.063 219.642 884.75 219.562 884.375 219.562C884.007 219.562 883.698 219.642 883.448 219.802C883.205 219.962 883.01 220.184 882.865 220.469C882.719 220.747 882.615 221.069 882.552 221.437C882.49 221.799 882.458 222.184 882.458 222.594ZM894.833 219.469V228.333H891.323V217.062H894.615L894.833 219.469ZM894.417 222.312L893.594 222.333C893.594 221.472 893.698 220.705 893.906 220.031C894.115 219.351 894.41 218.774 894.792 218.302C895.174 217.83 895.628 217.472 896.156 217.229C896.691 216.979 897.285 216.854 897.938 216.854C898.458 216.854 898.934 216.931 899.365 217.083C899.802 217.236 900.177 217.483 900.49 217.823C900.809 218.163 901.052 218.615 901.219 219.177C901.392 219.733 901.479 220.42 901.479 221.24V228.333H897.948V221.229C897.948 220.778 897.885 220.434 897.76 220.198C897.635 219.955 897.455 219.788 897.219 219.698C896.983 219.608 896.694 219.562 896.354 219.562C895.993 219.562 895.688 219.632 895.438 219.771C895.188 219.91 894.986 220.104 894.833 220.354C894.688 220.597 894.58 220.885 894.51 221.219C894.448 221.552 894.417 221.917 894.417 222.312ZM910.51 217.062H913.698V227.896C913.698 228.937 913.458 229.819 912.979 230.542C912.5 231.271 911.83 231.823 910.969 232.198C910.115 232.58 909.115 232.771 907.969 232.771C907.462 232.771 906.944 232.705 906.417 232.573C905.889 232.448 905.396 232.26 904.938 232.01C904.479 231.76 904.094 231.451 903.781 231.083L905.25 229.021C905.535 229.34 905.892 229.611 906.323 229.833C906.753 230.062 907.26 230.177 907.844 230.177C908.351 230.177 908.774 230.087 909.115 229.906C909.462 229.726 909.726 229.462 909.906 229.115C910.087 228.774 910.177 228.361 910.177 227.875V219.729L910.51 217.062ZM903.021 222.833V222.615C903.021 221.76 903.125 220.983 903.333 220.281C903.549 219.573 903.854 218.965 904.25 218.458C904.653 217.944 905.139 217.549 905.708 217.271C906.278 216.993 906.92 216.854 907.635 216.854C908.406 216.854 909.038 217.003 909.531 217.302C910.031 217.594 910.431 218.003 910.729 218.531C911.035 219.059 911.271 219.677 911.438 220.385C911.611 221.087 911.757 221.844 911.875 222.656V222.917C911.757 223.681 911.594 224.403 911.385 225.083C911.184 225.757 910.92 226.354 910.594 226.875C910.267 227.396 909.858 227.806 909.365 228.104C908.878 228.396 908.295 228.542 907.615 228.542C906.906 228.542 906.267 228.399 905.698 228.115C905.135 227.83 904.653 227.431 904.25 226.917C903.854 226.403 903.549 225.799 903.333 225.104C903.125 224.41 903.021 223.653 903.021 222.833ZM906.531 222.615V222.833C906.531 223.257 906.569 223.649 906.646 224.01C906.729 224.372 906.854 224.691 907.021 224.969C907.188 225.24 907.392 225.451 907.635 225.604C907.885 225.757 908.177 225.833 908.51 225.833C909.017 225.833 909.427 225.726 909.74 225.51C910.052 225.295 910.278 224.99 910.417 224.594C910.556 224.198 910.615 223.733 910.594 223.198V222.375C910.608 221.917 910.576 221.514 910.5 221.167C910.424 220.812 910.302 220.517 910.135 220.281C909.976 220.045 909.76 219.868 909.49 219.75C909.226 219.625 908.906 219.562 908.531 219.562C908.205 219.562 907.917 219.639 907.667 219.792C907.417 219.944 907.208 220.16 907.042 220.437C906.875 220.708 906.747 221.031 906.656 221.406C906.573 221.774 906.531 222.177 906.531 222.615ZM915.281 222.812V222.594C915.281 221.767 915.399 221.007 915.635 220.312C915.872 219.611 916.219 219.003 916.677 218.49C917.135 217.976 917.701 217.576 918.375 217.292C919.049 217 919.826 216.854 920.708 216.854C921.597 216.854 922.378 217 923.052 217.292C923.733 217.576 924.302 217.976 924.76 218.49C925.219 219.003 925.566 219.611 925.802 220.312C926.038 221.007 926.156 221.767 926.156 222.594V222.812C926.156 223.632 926.038 224.392 925.802 225.094C925.566 225.788 925.219 226.396 924.76 226.917C924.302 227.431 923.736 227.83 923.063 228.115C922.389 228.399 921.611 228.542 920.729 228.542C919.847 228.542 919.066 228.399 918.385 228.115C917.705 227.83 917.135 227.431 916.677 226.917C916.219 226.396 915.872 225.788 915.635 225.094C915.399 224.392 915.281 223.632 915.281 222.812ZM918.792 222.594V222.812C918.792 223.236 918.823 223.632 918.885 224C918.948 224.368 919.052 224.691 919.198 224.969C919.344 225.24 919.542 225.451 919.792 225.604C920.042 225.757 920.354 225.833 920.729 225.833C921.097 225.833 921.403 225.757 921.646 225.604C921.896 225.451 922.094 225.24 922.24 224.969C922.385 224.691 922.49 224.368 922.552 224C922.615 223.632 922.646 223.236 922.646 222.812V222.594C922.646 222.184 922.615 221.799 922.552 221.437C922.49 221.069 922.385 220.747 922.24 220.469C922.094 220.184 921.896 219.962 921.646 219.802C921.396 219.642 921.083 219.562 920.708 219.562C920.34 219.562 920.031 219.642 919.781 219.802C919.538 219.962 919.344 220.184 919.198 220.469C919.052 220.747 918.948 221.069 918.885 221.437C918.823 221.799 918.792 222.184 918.792 222.594ZM932.813 228.333H929.448L929.469 225.521H932.813C933.507 225.521 934.094 225.354 934.573 225.021C935.059 224.687 935.427 224.191 935.677 223.531C935.934 222.865 936.063 222.045 936.063 221.073V220.417C936.063 219.687 935.99 219.049 935.844 218.5C935.705 217.944 935.497 217.483 935.219 217.115C934.941 216.74 934.594 216.458 934.177 216.271C933.767 216.083 933.295 215.99 932.76 215.99H929.385V213.167H932.76C933.788 213.167 934.729 213.344 935.583 213.698C936.444 214.045 937.188 214.545 937.813 215.198C938.444 215.844 938.931 216.611 939.271 217.5C939.618 218.382 939.792 219.361 939.792 220.437V221.073C939.792 222.142 939.618 223.122 939.271 224.01C938.931 224.899 938.448 225.667 937.823 226.312C937.198 226.958 936.458 227.458 935.604 227.812C934.757 228.16 933.826 228.333 932.813 228.333ZM931.542 213.167V228.333H927.885V213.167H931.542ZM947.885 221.885H943.979L943.958 219.49H947.125C947.694 219.49 948.149 219.427 948.49 219.302C948.83 219.17 949.076 218.979 949.229 218.729C949.389 218.479 949.469 218.167 949.469 217.792C949.469 217.361 949.389 217.014 949.229 216.75C949.069 216.486 948.816 216.295 948.469 216.177C948.128 216.052 947.688 215.99 947.146 215.99H945.354V228.333H941.698V213.167H947.146C948.083 213.167 948.92 213.253 949.656 213.427C950.392 213.594 951.017 213.851 951.531 214.198C952.052 214.545 952.448 214.983 952.719 215.51C952.99 216.031 953.125 216.646 953.125 217.354C953.125 217.972 952.993 218.552 952.729 219.094C952.465 219.635 952.024 220.076 951.406 220.417C950.795 220.75 949.958 220.924 948.896 220.937L947.885 221.885ZM947.74 228.333H943.094L944.344 225.521H947.74C948.24 225.521 948.639 225.444 948.938 225.292C949.243 225.132 949.462 224.924 949.594 224.667C949.733 224.403 949.802 224.111 949.802 223.792C949.802 223.403 949.736 223.066 949.604 222.781C949.479 222.497 949.278 222.278 949 222.125C948.722 221.965 948.351 221.885 947.885 221.885H944.813L944.833 219.49H948.51L949.365 220.448C950.378 220.406 951.181 220.549 951.771 220.875C952.368 221.201 952.795 221.632 953.052 222.167C953.309 222.701 953.438 223.26 953.438 223.844C953.438 224.837 953.222 225.667 952.792 226.333C952.368 227 951.733 227.5 950.885 227.833C950.038 228.167 948.99 228.333 947.74 228.333Z" fill="white"/>
<path d="M104.06 51.0909L108.63 65.4574H108.805L113.385 51.0909H117.817L111.298 70H106.146L99.6186 51.0909H104.06ZM120.093 70V51.0909H124.091V66.7038H132.197V70H120.093ZM138.586 70H134.302L140.83 51.0909H145.982L152.5 70H148.216L143.48 55.4119H143.332L138.586 70ZM138.319 62.5675H148.438V65.6882H138.319V62.5675ZM161.479 70H154.776V51.0909H161.535C163.437 51.0909 165.074 51.4695 166.447 52.2266C167.819 52.9775 168.875 54.0578 169.614 55.4673C170.358 56.8769 170.731 58.5634 170.731 60.527C170.731 62.4967 170.358 64.1894 169.614 65.6051C168.875 67.0208 167.813 68.1072 166.428 68.8643C165.049 69.6214 163.4 70 161.479 70ZM158.774 66.5746H161.313C162.495 66.5746 163.489 66.3653 164.295 65.9467C165.108 65.522 165.717 64.8665 166.124 63.9801C166.536 63.0876 166.742 61.9366 166.742 60.527C166.742 59.1297 166.536 57.9879 166.124 57.1016C165.717 56.2152 165.111 55.5627 164.305 55.1442C163.498 54.7256 162.504 54.5163 161.322 54.5163H158.774V66.5746ZM177.69 51.0909V70H173.692V51.0909H177.69ZM180.979 51.0909H185.91L191.117 63.7955H191.339L196.546 51.0909H201.477V70H197.599V57.6925H197.442L192.548 69.9077H189.908L185.014 57.6463H184.857V70H180.979V51.0909ZM208.768 51.0909V70H204.77V51.0909H208.768ZM212.058 70V51.0909H219.518C220.946 51.0909 222.165 51.3464 223.174 51.8572C224.19 52.362 224.962 53.0791 225.491 54.0085C226.027 54.9318 226.295 56.0182 226.295 57.2678C226.295 58.5234 226.024 59.6037 225.482 60.5085C224.941 61.4072 224.156 62.0966 223.128 62.5767C222.106 63.0568 220.869 63.2969 219.416 63.2969H214.421V60.0838H218.77C219.533 60.0838 220.167 59.9792 220.672 59.7699C221.177 59.5606 221.552 59.2467 221.798 58.8281C222.051 58.4096 222.177 57.8894 222.177 57.2678C222.177 56.6399 222.051 56.1106 221.798 55.6797C221.552 55.2488 221.174 54.9226 220.663 54.701C220.158 54.4732 219.521 54.3594 218.751 54.3594H216.055V70H212.058ZM222.269 61.3949L226.969 70H222.555L217.957 61.3949H222.269ZM235.138 51.0909H240.068L245.275 63.7955H245.497L250.704 51.0909H255.635V70H251.757V57.6925H251.6L246.706 69.9077H244.066L239.172 57.6463H239.015V70H235.138V51.0909ZM262.188 70H257.904L264.431 51.0909H269.583L276.102 70H271.818L267.081 55.4119H266.934L262.188 70ZM261.92 62.5675H272.039V65.6882H261.92V62.5675ZM280.73 70L275.319 51.0909H279.687L282.817 64.2294H282.974L286.427 51.0909H290.166L293.61 64.2571H293.776L296.906 51.0909H301.273L295.863 70H291.966L288.366 57.6371H288.218L284.626 70H280.73ZM303.413 70V51.0909H307.411V66.7038H315.517V70H303.413ZM321.907 70H317.623L324.15 51.0909H329.302L335.821 70H331.537L326.8 55.4119H326.652L321.907 70ZM321.639 62.5675H331.758V65.6882H321.639V62.5675Z" fill="#ADADAD"/>
<path d="M120.511 119.557C120.398 118.307 119.892 117.335 118.994 116.642C118.108 115.938 116.841 115.585 115.193 115.585C114.102 115.585 113.193 115.727 112.466 116.011C111.739 116.295 111.193 116.688 110.83 117.188C110.466 117.676 110.278 118.239 110.267 118.875C110.244 119.398 110.347 119.858 110.574 120.256C110.813 120.653 111.153 121.006 111.597 121.312C112.051 121.608 112.597 121.869 113.233 122.097C113.869 122.324 114.585 122.523 115.381 122.693L118.381 123.375C120.108 123.75 121.631 124.25 122.949 124.875C124.278 125.5 125.392 126.244 126.29 127.108C127.199 127.972 127.886 128.966 128.352 130.091C128.818 131.216 129.057 132.477 129.068 133.875C129.057 136.08 128.5 137.972 127.398 139.551C126.295 141.131 124.71 142.341 122.642 143.182C120.585 144.023 118.102 144.443 115.193 144.443C112.273 144.443 109.727 144.006 107.557 143.131C105.386 142.256 103.699 140.926 102.494 139.142C101.29 137.358 100.67 135.102 100.636 132.375H108.716C108.784 133.5 109.085 134.438 109.619 135.188C110.153 135.938 110.886 136.506 111.818 136.892C112.761 137.278 113.852 137.472 115.091 137.472C116.227 137.472 117.193 137.318 117.989 137.011C118.795 136.705 119.415 136.278 119.847 135.733C120.278 135.187 120.5 134.562 120.511 133.858C120.5 133.199 120.295 132.636 119.898 132.17C119.5 131.693 118.886 131.284 118.057 130.943C117.239 130.591 116.193 130.267 114.92 129.972L111.273 129.119C108.25 128.426 105.869 127.307 104.131 125.761C102.392 124.205 101.528 122.102 101.54 119.455C101.528 117.295 102.108 115.403 103.278 113.778C104.449 112.153 106.068 110.886 108.136 109.977C110.205 109.068 112.563 108.614 115.21 108.614C117.915 108.614 120.261 109.074 122.25 109.994C124.25 110.903 125.801 112.182 126.903 113.83C128.006 115.477 128.568 117.386 128.591 119.557H120.511ZM133.33 144V109.091H147.75C150.364 109.091 152.619 109.602 154.517 110.625C156.426 111.636 157.898 113.051 158.932 114.869C159.966 116.676 160.483 118.778 160.483 121.176C160.483 123.585 159.955 125.693 158.898 127.5C157.852 129.295 156.358 130.687 154.415 131.676C152.472 132.665 150.165 133.159 147.494 133.159H138.597V126.511H145.926C147.199 126.511 148.261 126.29 149.114 125.847C149.977 125.403 150.631 124.784 151.074 123.989C151.517 123.182 151.739 122.244 151.739 121.176C151.739 120.097 151.517 119.165 151.074 118.381C150.631 117.585 149.977 116.972 149.114 116.54C148.25 116.108 147.188 115.892 145.926 115.892H141.767V144H133.33ZM164.642 144V109.091H188.983V115.943H173.08V123.102H187.739V129.972H173.08V137.148H188.983V144H164.642ZM223.977 109.091V144H216.818L202.926 123.852H202.705V144H194.267V109.091H201.528L215.267 129.205H215.557V109.091H223.977ZM242.186 144H229.283V109.091H242.169C245.726 109.091 248.788 109.79 251.357 111.188C253.936 112.574 255.925 114.574 257.322 117.188C258.72 119.79 259.419 122.903 259.419 126.528C259.419 130.165 258.72 133.29 257.322 135.903C255.936 138.517 253.953 140.523 251.374 141.92C248.794 143.307 245.732 144 242.186 144ZM237.72 136.807H241.862C243.817 136.807 245.47 136.477 246.822 135.818C248.186 135.148 249.214 134.062 249.908 132.562C250.612 131.051 250.964 129.04 250.964 126.528C250.964 124.017 250.612 122.017 249.908 120.528C249.203 119.028 248.163 117.949 246.788 117.29C245.425 116.619 243.743 116.284 241.743 116.284H237.72V136.807ZM264.345 144V109.091H272.783V137.148H287.305V144H264.345ZM284.544 109.091H293.97L301.351 123.699H301.658L309.038 109.091H318.464L305.697 132.341V144H297.311V132.341L284.544 109.091Z" fill="black"/>
</g>
<defs>
<clipPath id="clip0_6_4">
<rect width="1363" height="301" fill="white"/>
</clipPath>
</defs>
</svg>
